REM DIRINDEX 1\2\5,1\2\6,1\2\7,1\2\8,1\3\9,1\3\10,1\3\11,1\4\12,1\4\13,1\4\14,1\4\15,1\4\16
REM DIRNAME folder01,folder02,folder03,folder04,folder05,folder06,folder07,folder08,folder09,folder10,folder11,folder12,folder13,folder14,folder15,folder16
TITLE ""
FILE "1200_sec04_1259_1265.mp3" MP3
  TRACK 01 AUDIO
    TITLE "0:"
    INDEX 01 00:00:00
  TRACK 02 AUDIO
    TITLE "12:cjc034_08748"
    INDEX 01 00:00:19
  TRACK 03 AUDIO
    TITLE "0:"
    INDEX 01 00:01:30
  TRACK 04 AUDIO
    TITLE "13:cjc034_08749"
    INDEX 01 00:01:64
  TRACK 05 AUDIO
    TITLE "0:"
    INDEX 01 00:04:74
  TRACK 06 AUDIO
    TITLE "14:cjc034_08750"
    INDEX 01 00:05:32
  TRACK 07 AUDIO
    TITLE "0:"
    INDEX 01 00:06:45
  TRACK 08 AUDIO
    TITLE "15:cjc034_08751"
    INDEX 01 00:07:03
  TRACK 09 AUDIO
    TITLE "0:"
    INDEX 01 00:11:23
  TRACK 10 AUDIO
    TITLE "12:cjc034_08752"
    INDEX 01 00:12:60
  TRACK 11 AUDIO
    TITLE "0:"
    INDEX 01 00:14:02
  TRACK 12 AUDIO
    TITLE "13:cjc034_08753"
    INDEX 01 00:14:37
  TRACK 13 AUDIO
    TITLE "0:"
    INDEX 01 00:15:27
  TRACK 14 AUDIO
    TITLE "14:cjc034_08754"
    INDEX 01 00:15:60
  TRACK 15 AUDIO
    TITLE "0:"
    INDEX 01 00:17:02
  TRACK 16 AUDIO
    TITLE "15:cjc034_08755"
    INDEX 01 00:17:35
  TRACK 17 AUDIO
    TITLE "0:"
    INDEX 01 00:23:26
  TRACK 18 AUDIO
    TITLE "12:cjc034_08756"
    INDEX 01 00:24:59
  TRACK 19 AUDIO
    TITLE "0:"
    INDEX 01 00:25:74
  TRACK 20 AUDIO
    TITLE "13:cjc034_08757"
    INDEX 01 00:26:30
  TRACK 21 AUDIO
    TITLE "0:"
    INDEX 01 00:27:45
  TRACK 22 AUDIO
    TITLE "14:cjc034_08758"
    INDEX 01 00:28:02
  TRACK 23 AUDIO
    TITLE "0:"
    INDEX 01 00:29:17
  TRACK 24 AUDIO
    TITLE "15:cjc034_08759"
    INDEX 01 00:29:52
  TRACK 25 AUDIO
    TITLE "0:"
    INDEX 01 00:34:06
  TRACK 26 AUDIO
    TITLE "16:cjc034_08760"
    INDEX 01 00:35:39
  TRACK 27 AUDIO
    TITLE "0:"
    INDEX 01 00:38:26
  TRACK 28 AUDIO
    TITLE "12:cjc034_08761"
    INDEX 01 00:39:33
  TRACK 29 AUDIO
    TITLE "0:"
    INDEX 01 00:40:68
  TRACK 30 AUDIO
    TITLE "13:cjc034_08762"
    INDEX 01 00:41:26
  TRACK 31 AUDIO
    TITLE "0:"
    INDEX 01 00:43:48
  TRACK 32 AUDIO
    TITLE "14:cjc034_08763"
    INDEX 01 00:44:05
  TRACK 33 AUDIO
    TITLE "0:"
    INDEX 01 00:45:39
  TRACK 34 AUDIO
    TITLE "15:cjc034_08764"
    INDEX 01 00:46:00
  TRACK 35 AUDIO
    TITLE "0:"
    INDEX 01 00:51:44
  TRACK 36 AUDIO
    TITLE "12:cjc034_08765"
    INDEX 01 00:53:02
  TRACK 37 AUDIO
    TITLE "0:"
    INDEX 01 00:54:17
  TRACK 38 AUDIO
    TITLE "13:cjc034_08766"
    INDEX 01 00:54:50
  TRACK 39 AUDIO
    TITLE "0:"
    INDEX 01 00:58:03
  TRACK 40 AUDIO
    TITLE "14:cjc034_08767"
    INDEX 01 00:58:36
  TRACK 41 AUDIO
    TITLE "0:"
    INDEX 01 00:59:53
  TRACK 42 AUDIO
    TITLE "15:cjc034_08768"
    INDEX 01 01:00:12
  TRACK 43 AUDIO
    TITLE "0:"
    INDEX 01 01:04:72
  TRACK 44 AUDIO
    TITLE "12:cjc034_08769"
    INDEX 01 01:06:30
  TRACK 45 AUDIO
    TITLE "0:"
    INDEX 01 01:07:29
  TRACK 46 AUDIO
    TITLE "13:cjc034_08770"
    INDEX 01 01:07:66
  TRACK 47 AUDIO
    TITLE "0:"
    INDEX 01 01:08:56
  TRACK 48 AUDIO
    TITLE "14:cjc034_08771"
    INDEX 01 01:09:12
  TRACK 49 AUDIO
    TITLE "0:"
    INDEX 01 01:10:12
  TRACK 50 AUDIO
    TITLE "15:cjc034_08772"
    INDEX 01 01:10:47
  TRACK 51 AUDIO
    TITLE "0:"
    INDEX 01 01:14:66
  TRACK 52 AUDIO
    TITLE "12:cjc034_08773"
    INDEX 01 01:16:30
  TRACK 53 AUDIO
    TITLE "0:"
    INDEX 01 01:17:47
  TRACK 54 AUDIO
    TITLE "13:cjc034_08774"
    INDEX 01 01:18:07
  TRACK 55 AUDIO
    TITLE "0:"
    INDEX 01 01:22:35
  TRACK 56 AUDIO
    TITLE "14:cjc034_08775"
    INDEX 01 01:22:68
  TRACK 57 AUDIO
    TITLE "0:"
    INDEX 01 01:24:12
  TRACK 58 AUDIO
    TITLE "15:cjc034_08776"
    INDEX 01 01:24:43
  TRACK 59 AUDIO
    TITLE "0:"
    INDEX 01 01:29:50
